<svg width="20" height="20" viewBox="0 0 20 20" fill="none" xmlns="http://www.w3.org/2000/svg">
    <path d="M15.83 3.333h-.833V2.5c0-.5-.333-.833-.833-.833-.5 0-.833.333-.833.833v.833H6.664V2.5c0-.5-.333-.833-.833-.833-.5 0-.834.333-.834.833v.833h-.833c-1.417 0-2.5 1.083-2.5 2.5v.833h16.667v-.833c0-1.417-1.084-2.5-2.5-2.5zm-14.166 12.5c0 1.417 1.083 2.5 2.5 2.5h11.667c1.416 0 2.5-1.083 2.5-2.5v-7.5H1.664v7.5zM14.164 10c.5 0 .833.333.833.833 0 .5-.333.833-.833.833-.5 0-.833-.333-.833-.833 0-.5.333-.833.833-.833zm0 3.333c.5 0 .833.333.833.833 0 .5-.333.834-.833.834-.5 0-.833-.334-.833-.834 0-.5.333-.833.833-.833zM9.997 10c.5 0 .834.333.834.833 0 .5-.334.833-.834.833-.5 0-.833-.333-.833-.833 0-.5.333-.833.833-.833zm0 3.333c.5 0 .834.333.834.833 0 .5-.334.834-.834.834-.5 0-.833-.334-.833-.834 0-.5.333-.833.833-.833zM5.831 10c.5 0 .833.333.833.833 0 .5-.333.833-.833.833-.5 0-.834-.333-.834-.833 0-.5.334-.833.834-.833zm0 3.333c.5 0 .833.333.833.833 0 .5-.333.834-.833.834-.5 0-.834-.334-.834-.834 0-.5.334-.833.834-.833z" fill="#038EDC"/>
</svg>
