<svg width="24" height="24" viewBox="0 0 24 24" fill="none" xmlns="http://www.w3.org/2000/svg">
<path d="M8.39264 20.342C10.3039 21.3225 12.5025 21.588 14.5922 21.0909C16.6819 20.5937 18.5254 19.3665 19.7903 17.6304C21.0553 15.8944 21.6586 13.7636 21.4915 11.622C21.3245 9.48047 20.398 7.46901 18.8791 5.95011C17.3602 4.43121 15.3488 3.50475 13.2072 3.33768C11.0657 3.17061 8.93487 3.77392 7.19879 5.03889C5.46271 6.30386 4.23552 8.1473 3.73835 10.237C3.24119 12.3267 3.50675 14.5253 4.48718 16.4366L2.48438 22.3448L8.39264 20.342Z" stroke="white" stroke-width="2.39474" stroke-linecap="round" stroke-linejoin="round"/>
<path d="M8.27734 11.5862H8.28775" stroke="white" stroke-width="2.39474" stroke-linecap="round" stroke-linejoin="round"/>
<path d="M12 11.9999H12.0104" stroke="white" stroke-width="2.39474" stroke-linecap="round" stroke-linejoin="round"/>
<path d="M16 11.9999H16.0104" stroke="white" stroke-width="2.39474" stroke-linecap="round" stroke-linejoin="round"/>
</svg>
