<svg width="20" height="20" viewBox="0 0 20 20" fill="none" xmlns="http://www.w3.org/2000/svg">
    <path fill-rule="evenodd" clip-rule="evenodd" d="M3.745 11.548c4.266.74 8.531.715 12.797 0v-5.93a.311.311 0 0 0-.063-.187L13.67 1.685a.312.312 0 0 0-.25-.124H4.683a.936.936 0 0 0-.937.936v7.178c0 .464-.108.857-.108 1.17 0 .433.108.703.108.703z" fill="#D8DFE3"/>
    <path fill-rule="evenodd" clip-rule="evenodd" d="M1.873 10.739v6.74a.936.936 0 0 0 .936.936h14.357a.937.937 0 0 0 .937-.937v-4.994a.937.937 0 0 0-.937-.936H3.122c-.399 0-1.249-.809-1.249-.809z" fill="#1FB35B"/>
    <path fill-rule="evenodd" clip-rule="evenodd" d="M2.81 11.548a.931.931 0 0 1-.936-.936c0-.198.098-.487.273-.662a.936.936 0 0 1 .662-.274h.937v1.872h-.937z" fill="#198043"/>
    <path fill-rule="evenodd" clip-rule="evenodd" d="M13.42 1.56v3.122a.936.936 0 0 0 .936.936h2.185a.312.312 0 0 0-.062-.187l-2.81-3.746a.312.312 0 0 0-.25-.124z" fill="#AFBDC7"/>
    <path fill-rule="evenodd" clip-rule="evenodd" d="M6.554 5.93h4.058a.312.312 0 0 0 0-.624H6.554a.312.312 0 0 0 0 .624zm0 1.873h7.179a.312.312 0 0 0 0-.625H6.554a.312.312 0 0 0 0 .625zm0 1.872h7.179a.312.312 0 0 0 0-.624H6.554a.312.312 0 0 0 0 .624z" fill="#1FB35B"/>
    <path fill-rule="evenodd" clip-rule="evenodd" d="m11.727 13.537 1.249 3.12a.312.312 0 0 0 .58 0l1.248-3.12a.312.312 0 0 0-.58-.232l-.959 2.396-.958-2.396a.312.312 0 1 0-.58.232zm-4.838-.428h-.178a1.56 1.56 0 0 0-1.56 1.56v.624c0 .862.698 1.561 1.56 1.561h.178c.557 0 1.063-.325 1.294-.831l.06-.13a.312.312 0 1 0-.568-.26l-.06.13a.799.799 0 0 1-.726.467h-.178a.936.936 0 0 1-.936-.937v-.624c0-.517.419-.936.936-.936h.178c.313 0 .596.182.726.466 0 0 .038.086.06.13a.312.312 0 1 0 .568-.26l-.06-.13a1.423 1.423 0 0 0-1.294-.83zm1.85 2.655v.154a.936.936 0 0 0 .936.936h.704a.936.936 0 0 0 .936-.936v-.124a.936.936 0 0 0-.589-.87l-1.135-.453a.361.361 0 0 1-.227-.336v-.09a.312.312 0 0 1 .312-.312h.702a.312.312 0 0 1 .312.312v.154a.314.314 0 0 0 .312.314.31.31 0 0 0 .313-.314v-.154a.936.936 0 0 0-.937-.936h-.702a.936.936 0 0 0-.936.936v.09c0 .403.245.766.62.915l1.134.454a.312.312 0 0 1 .196.29v.124a.312.312 0 0 1-.311.312h-.704a.311.311 0 0 1-.311-.312v-.154a.308.308 0 0 0-.307-.315c-.131 0-.317.103-.317.313v.002z" fill="#D8DFE3"/>
</svg>
