<svg width="32" height="32" viewBox="0 0 32 32" fill="none" xmlns="http://www.w3.org/2000/svg">
    <circle cx="16" cy="16" r="16" fill="#E6F6FF"/>
    <path d="M23.617 18.667v.05H25a.616.616 0 0 1 .617.616v4a.617.617 0 0 1-.617.617h-4a.617.617 0 0 1-.617-.617v-4a.617.617 0 0 1 .617-.616h1.383V17.333a.717.717 0 0 0-.716-.716H16.95V18.717h1.383a.617.617 0 0 1 .617.616v4a.617.617 0 0 1-.617.617h-4a.617.617 0 0 1-.616-.617v-4a.616.616 0 0 1 .616-.616H15.717V16.617H11a.717.717 0 0 0-.717.716V18.717H11.667a.616.616 0 0 1 .616.616v4a.617.617 0 0 1-.616.617h-4a.617.617 0 0 1-.617-.617v-4a.617.617 0 0 1 .617-.616H9.05V17.333a1.95 1.95 0 0 1 1.95-1.95h4.717V13.283H14.333a.616.616 0 0 1-.616-.616v-4a.616.616 0 0 1 .616-.617h4a.617.617 0 0 1 .617.617v4a.617.617 0 0 1-.617.616H16.95V15.383h4.717a1.95 1.95 0 0 1 1.95 1.95v1.334zM15 9.283h-.05V12.05H17.717V9.283H15zm-4 13.434h.05V19.95H8.283V22.717H11zm6.667 0h.05V19.95H14.95V22.717H17.667zm6.666 0h.05V19.95H21.617V22.717H24.333z" fill="#038EDC" stroke="#E6F6FF" stroke-width=".1"/>
</svg>
