<svg width="32" height="32" viewBox="0 0 32 32" fill="none" xmlns="http://www.w3.org/2000/svg">
    <circle cx="16" cy="16" r="16" fill="#E6F6FF"/>
    <g clip-path="url(#0522th4wba)" fill-rule="evenodd" clip-rule="evenodd" fill="#038EDC">
        <path d="M21.448 20.38H6.362A2.358 2.358 0 0 1 4 18.018v-8.17a2.355 2.355 0 0 1 2.362-2.347h15.086a2.36 2.36 0 0 1 2.362 2.221.565.565 0 0 1-.534.59.565.565 0 0 1-.59-.533 1.245 1.245 0 0 0-1.238-1.167H6.362c-.675 0-1.237.562-1.237 1.237v8.169c0 .688.562 1.237 1.237 1.237h15.086c.661 0 1.195-.506 1.237-1.167a.544.544 0 0 1 .59-.52c.31.014.55.28.535.59a2.36 2.36 0 0 1-2.362 2.222z"/>
        <path d="M20.422 17.582H4.562A.564.564 0 0 1 4 17.019c0-.309.253-.562.562-.562h15.86c.31 0 .562.253.562.562 0 .31-.253.563-.562.563zm-2.208 6.917c-1.321 0-2.348-1.35-2.348-3.065 0-.703.17-1.364.492-1.898a.568.568 0 0 1 .774-.197.568.568 0 0 1 .197.774c-.225.365-.338.829-.338 1.321 0 1.055.563 1.94 1.223 1.94.31 0 .563.253.563.563 0 .309-.253.562-.563.562zm-8.618 0a.564.564 0 0 1-.563-.562c0-.31.253-.563.563-.563.66 0 1.223-.885 1.223-1.94 0-.492-.113-.956-.338-1.322a.568.568 0 0 1 .197-.773.556.556 0 0 1 .774.197c.323.534.492 1.195.492 1.898 0 1.715-1.027 3.065-2.348 3.065zM12.408 11.016H7.19a.564.564 0 0 1-.562-.563c0-.309.253-.562.562-.562h5.217c.323 0 .562.253.562.563 0 .309-.24.562-.563.562zm2.938 2.08H7.191a.564.564 0 0 1-.562-.562c0-.309.253-.562.562-.562h8.155c.31 0 .562.253.562.562 0 .31-.253.563-.562.563zm1.504 2.096H7.191a.564.564 0 0 1-.562-.563c0-.31.253-.562.562-.562h9.66c.323 0 .562.253.562.562 0 .31-.24.563-.563.563z"/>
        <path d="M19.65 24.5H8.165a.564.564 0 0 1-.562-.563c0-.31.253-.563.562-.563h11.487c.31 0 .562.254.562.563 0 .31-.253.562-.562.562zM23.248 18.692a4.764 4.764 0 0 1-4.752-4.752 4.764 4.764 0 0 1 4.752-4.752A4.764 4.764 0 0 1 28 13.94a4.764 4.764 0 0 1-4.752 4.752zm0-8.38a3.636 3.636 0 0 0-3.627 3.628 3.636 3.636 0 0 0 3.627 3.628 3.636 3.636 0 0 0 3.628-3.628 3.636 3.636 0 0 0-3.628-3.627z"/>
        <path d="M25.048 16.19H21.45a.564.564 0 0 1-.562-.563v-2.474c0-.31.253-.563.562-.563h3.6c.309 0 .562.253.562.563v2.474c0 .31-.253.563-.563.563zm-3.036-1.125h2.474v-1.35h-2.474v1.35z"/>
        <path d="M24.164 13.716a.564.564 0 0 1-.563-.563v-.745c0-.211-.337-.211-.351-.211-.014 0-.352 0-.352.21v.746c0 .31-.253.563-.562.563a.564.564 0 0 1-.563-.563v-.745c0-.773.633-1.336 1.477-1.336.843 0 1.476.563 1.476 1.336v.745c0 .31-.253.563-.562.563z"/>
    </g>
    <defs>
        <clipPath id="0522th4wba">
            <path fill="#fff" transform="translate(4 4)" d="M0 0h24v24H0z"/>
        </clipPath>
    </defs>
</svg>
