<svg width="32" height="32" viewBox="0 0 32 32" fill="none" xmlns="http://www.w3.org/2000/svg">
    <circle cx="16" cy="16" r="16" fill="#E6F6FF"/>
    <path d="M12 18.75H8A2.752 2.752 0 0 1 5.25 16v-4A2.753 2.753 0 0 1 8 9.25h4a.75.75 0 0 1 .75.75v8a.75.75 0 0 1-.75.75zm-4-8A1.251 1.251 0 0 0 6.75 12v4A1.251 1.251 0 0 0 8 17.25h3.25v-6.5H8z" fill="#038EDC"/>
    <path d="M19.001 22.134c-.272 0-.54-.064-.784-.187l-6.552-3.276A.75.75 0 0 1 11.25 18v-8a.75.75 0 0 1 .415-.67l6.552-3.277a1.75 1.75 0 0 1 2.533 1.565v12.764a1.754 1.754 0 0 1-1.749 1.752zm-6.251-4.597 6.138 3.069a.248.248 0 0 0 .243-.011.242.242 0 0 0 .119-.213V7.618a.242.242 0 0 0-.119-.213.247.247 0 0 0-.243-.01l-6.138 3.068v7.074zM26 14.75h-3.5a.75.75 0 1 1 0-1.5H26a.75.75 0 1 1 0 1.5zm-4-4a.75.75 0 0 1-.416-1.374l3-2a.75.75 0 1 1 .832 1.248l-3 2a.745.745 0 0 1-.416.126zm3 10a.745.745 0 0 1-.416-.126l-3-2a.75.75 0 0 1 .832-1.248l3 2A.75.75 0 0 1 25 20.75z" fill="#038EDC"/>
    <path d="M12.27 25.75h-.97a2.25 2.25 0 0 1-2.223-1.94l-.82-5.703A.75.75 0 0 1 9 17.25h3a.75.75 0 1 1 0 1.5H9.867l.695 4.854a.736.736 0 0 0 .738.646h.97a.739.739 0 0 0 .563-.257.766.766 0 0 0 .184-.604l-.33-2.334a.748.748 0 0 1 .931-.834.752.752 0 0 1 .555.625l.33 2.34a2.259 2.259 0 0 1-2.233 2.564z" fill="#038EDC"/>
</svg>
