<svg width="32" height="32" viewBox="0 0 32 32" fill="none" xmlns="http://www.w3.org/2000/svg">
    <circle cx="16" cy="16" r="16" fill="#E6F6FF"/>
    <path d="M24.003 10H13.336c-1.103 0-2 .897-2 2v8c0 1.103.897 2 2 2h10.667c1.102 0 2-.897 2-2v-8c0-1.103-.898-2-2-2zm-.536 1.333-4.428 2.952a.664.664 0 0 1-.74 0l-4.428-2.952h9.596zm.536 9.334H13.336a.668.668 0 0 1-.667-.667v-7.865l4.89 3.26a2 2 0 0 0 2.22 0l4.89-3.261v7.865c0 .368-.3.668-.666.668zM10 13.333H6.667a.667.667 0 0 1 0-1.333H10a.667.667 0 0 1 0 1.333zm0 3.334H8a.667.667 0 0 1 0-1.334h2a.667.667 0 0 1 0 1.334zM10 20H8.667a.667.667 0 0 1 0-1.333H10A.667.667 0 0 1 10 20z" fill="#038EDC"/>
</svg>
