<svg width="32" height="32" viewBox="0 0 32 32" fill="none" xmlns="http://www.w3.org/2000/svg">
    <circle cx="16" cy="16" r="16" fill="#E6F6FF"/>
    <path d="M24 17h1a1 1 0 0 1 1 1v1a1 1 0 0 1-1 1h-1M8 17H7a1 1 0 0 0-1 1v1a1 1 0 0 0 1 1h1m16-.5V18a8 8 0 1 0-16 0v1.5a4 4 0 0 0 4 4h.056a4 4 0 0 1 1.789.422l.366.184a4 4 0 0 0 3.578 0l.366-.184a4 4 0 0 1 1.79-.422H20a4 4 0 0 0 4-4z" stroke="#038EDC" stroke-width="1.5" stroke-linecap="round" stroke-linejoin="round"/>
    <path d="M13 19a4.243 4.243 0 0 0 6 0M17.5 16a1.118 1.118 0 0 1 2 0m-7 0a1.118 1.118 0 0 1 2 0M22.25 12.5l.61-.406a2 2 0 0 0 .89-1.664V9.5m-14 3-.61-.406a2 2 0 0 1-.89-1.664V9.5M23.75 9.5a1.25 1.25 0 1 0 0-2.5 1.25 1.25 0 0 0 0 2.5zM8.25 9.5a1.25 1.25 0 1 1 0-2.5 1.25 1.25 0 0 1 0 2.5z" stroke="#038EDC" stroke-width="1.5" stroke-linecap="round" stroke-linejoin="round"/>
</svg>
