<svg width="16" height="20" viewBox="0 0 16 20" fill="none" xmlns="http://www.w3.org/2000/svg">
<path d="M14.1509 7.14544L13.8509 16.2257C13.8253 17.0034 13.4977 17.7405 12.9376 18.2806C12.3775 18.8206 11.629 19.1212 10.8509 19.1184H5.15087C4.37329 19.1212 3.62519 18.8211 3.06516 18.2816C2.50513 17.7422 2.17719 17.0058 2.15087 16.2287L1.85088 7.14544C1.84431 6.94653 1.91703 6.75316 2.05304 6.60787C2.18905 6.46257 2.37721 6.37726 2.57613 6.3707C2.77504 6.36413 2.96841 6.43685 3.1137 6.57286C3.259 6.70887 3.34431 6.89703 3.35087 7.09594L3.65087 16.1784C3.66581 16.5662 3.83042 16.933 4.11012 17.202C4.38982 17.4709 4.76286 17.621 5.15087 17.6207H10.8509C11.2394 17.621 11.6129 17.4705 11.8926 17.2009C12.1724 16.9313 12.3367 16.5637 12.3509 16.1754L12.6509 7.09594C12.6574 6.89703 12.7428 6.70887 12.888 6.57286C13.0333 6.43685 13.2267 6.36413 13.4256 6.3707C13.6245 6.37726 13.8127 6.46257 13.9487 6.60787C14.0847 6.75316 14.1574 6.94653 14.1509 7.14544ZM15.1431 4.12369C15.1431 4.32261 15.0641 4.51337 14.9235 4.65403C14.7828 4.79468 14.592 4.87369 14.3931 4.87369H1.60938C1.41046 4.87369 1.2197 4.79468 1.07904 4.65403C0.938392 4.51337 0.859375 4.32261 0.859375 4.12369C0.859375 3.92478 0.938392 3.73402 1.07904 3.59337C1.2197 3.45271 1.41046 3.3737 1.60938 3.3737H3.93437C4.17201 3.37434 4.40138 3.28654 4.57786 3.12739C4.75434 2.96825 4.86529 2.74913 4.88912 2.5127C4.94447 1.95806 5.20432 1.44389 5.61805 1.07038C6.03177 0.696858 6.56974 0.490745 7.12713 0.492195H8.87463C9.43201 0.490745 9.96998 0.696858 10.3837 1.07038C10.7974 1.44389 11.0573 1.95806 11.1126 2.5127C11.1365 2.74913 11.2474 2.96825 11.4239 3.12739C11.6004 3.28654 11.8297 3.37434 12.0674 3.3737H14.3924C14.5913 3.3737 14.7821 3.45271 14.9227 3.59337C15.0634 3.73402 15.1424 3.92478 15.1424 4.12369H15.1431ZM6.19112 3.3737H9.81213C9.71357 3.1485 9.64911 2.90988 9.62087 2.66569C9.60229 2.48083 9.51575 2.30944 9.37802 2.18473C9.24029 2.06002 9.06117 1.99088 8.87537 1.9907H7.12787C6.94207 1.99088 6.76296 2.06002 6.62523 2.18473C6.48749 2.30944 6.40095 2.48083 6.38237 2.66569C6.3539 2.90992 6.28919 3.14854 6.19038 3.3737H6.19112ZM6.94637 14.7369V8.3507C6.94637 8.15178 6.86736 7.96102 6.7267 7.82036C6.58605 7.67971 6.39529 7.6007 6.19637 7.6007C5.99746 7.6007 5.8067 7.67971 5.66604 7.82036C5.52539 7.96102 5.44637 8.15178 5.44637 8.3507V14.7399C5.44637 14.9389 5.52539 15.1296 5.66604 15.2703C5.8067 15.4109 5.99746 15.4899 6.19637 15.4899C6.39529 15.4899 6.58605 15.4109 6.7267 15.2703C6.86736 15.1296 6.94637 14.9389 6.94637 14.7399V14.7369ZM10.5569 14.7369V8.3507C10.5569 8.15178 10.4779 7.96102 10.3372 7.82036C10.1966 7.67971 10.0058 7.6007 9.80688 7.6007C9.60796 7.6007 9.4172 7.67971 9.27654 7.82036C9.13589 7.96102 9.05688 8.15178 9.05688 8.3507V14.7399C9.05688 14.9389 9.13589 15.1296 9.27654 15.2703C9.4172 15.4109 9.60796 15.4899 9.80688 15.4899C10.0058 15.4899 10.1966 15.4109 10.3372 15.2703C10.4779 15.1296 10.5569 14.9389 10.5569 14.7399V14.7369Z" fill="#FD573A"/>
</svg>
