<svg width="28" height="28" viewBox="0 0 28 28" fill="none" xmlns="http://www.w3.org/2000/svg">
<path d="M27.5001 5.83301H9.00001C8.72375 5.83301 8.5 6.09405 8.5 6.41635C8.5 6.73864 8.72375 6.99969 9.00001 6.99969H27.5001C27.7763 6.99969 28.0001 6.73864 28.0001 6.41635C28.0001 6.09405 27.7763 5.83301 27.5001 5.83301Z" fill="#038EDC"/>
<path d="M8.99952 4.66668H27.4996C27.7758 4.66668 27.9996 4.40564 27.9996 4.08334C27.9996 3.76105 27.7758 3.5 27.4996 3.5H8.99952C8.72326 3.5 8.49951 3.76105 8.49951 4.08334C8.49951 4.40564 8.72326 4.66668 8.99952 4.66668Z" fill="#038EDC"/>
<path d="M8.99952 2.33367H21.9997C22.2759 2.33367 22.4997 2.07263 22.4997 1.75033C22.4997 1.42804 22.2759 1.16699 21.9997 1.16699H8.99952C8.72326 1.16699 8.49951 1.42804 8.49951 1.75033C8.49951 2.07263 8.72326 2.33367 8.99952 2.33367Z" fill="#038EDC"/>
<path d="M27.5001 15.75H9.00001C8.72375 15.75 8.5 16.011 8.5 16.3333C8.5 16.6556 8.72375 16.9167 9.00001 16.9167H27.5001C27.7763 16.9167 28.0001 16.6556 28.0001 16.3333C28.0001 16.011 27.7763 15.75 27.5001 15.75Z" fill="#038EDC"/>
<path d="M27.5001 13.4175H9.00001C8.72375 13.4175 8.5 13.6785 8.5 14.0008C8.5 14.3231 8.72375 14.5842 9.00001 14.5842H27.5001C27.7763 14.5842 28.0001 14.3231 28.0001 14.0008C28.0001 13.6785 27.7763 13.4175 27.5001 13.4175Z" fill="#038EDC"/>
<path d="M8.99952 12.2497H21.9997C22.2759 12.2497 22.4997 11.9886 22.4997 11.6663C22.4997 11.3441 22.2759 11.083 21.9997 11.083H8.99952C8.72326 11.083 8.49951 11.3441 8.49951 11.6663C8.49951 11.9886 8.72326 12.2497 8.99952 12.2497Z" fill="#038EDC"/>
<path d="M27.5001 25.6675H9.00001C8.72375 25.6675 8.5 25.9285 8.5 26.2508C8.5 26.5731 8.72375 26.8342 9.00001 26.8342H27.5001C27.7763 26.8342 28.0001 26.5731 28.0001 26.2508C28.0001 25.9285 27.7763 25.6675 27.5001 25.6675Z" fill="#038EDC"/>
<path d="M27.5001 23.333H9.00001C8.72375 23.333 8.5 23.5941 8.5 23.9163C8.5 24.2386 8.72375 24.4997 9.00001 24.4997H27.5001C27.7763 24.4997 28.0001 24.2386 28.0001 23.9163C28.0001 23.5941 27.7763 23.333 27.5001 23.333Z" fill="#038EDC"/>
<path d="M8.99952 22.1667H21.9997C22.2759 22.1667 22.4997 21.9056 22.4997 21.5833C22.4997 21.261 22.2759 21 21.9997 21H8.99952C8.72326 21 8.49951 21.261 8.49951 21.5833C8.49951 21.9056 8.72326 22.1667 8.99952 22.1667Z" fill="#038EDC"/>
<path d="M1.50002 0H5.50006C6.32881 0 7.00008 0.96687 7.00008 1.75002V6.41674C7.00008 7.38361 6.32881 8.16676 5.50006 8.16676H1.50002C0.671272 8.16676 0 7.19989 0 6.41674V1.75002C0 0.78315 0.671272 0 1.50002 0Z" fill="#038EDC"/>
<path d="M1.50002 9.91748H5.50006C6.32881 9.91748 7.00008 10.8844 7.00008 11.6675V16.3342C7.00008 17.3011 6.32881 18.0842 5.50006 18.0842H1.50002C0.671272 18.0842 0 17.1174 0 16.3342V11.6675C0 10.7006 0.671272 9.91748 1.50002 9.91748Z" fill="#038EDC"/>
<path d="M1.50002 19.833H5.50006C6.32881 19.833 7.00008 20.7999 7.00008 21.583V26.2497C7.00008 27.2166 6.32881 27.9998 5.50006 27.9998H1.50002C0.671272 27.9998 0 27.0329 0 26.2497V21.583C0 20.6162 0.671272 19.833 1.50002 19.833Z" fill="#038EDC"/>
</svg>
