<svg width="40" height="40" viewBox="0 0 40 40" fill="none" xmlns="http://www.w3.org/2000/svg">
<path fill-rule="evenodd" clip-rule="evenodd" d="M13.5492 5.42116C12.9576 5.26266 12.3563 5.59056 12.2053 6.15394C10.6595 11.9228 11.8253 15.6449 13.7568 18.7689C14.0712 19.2766 14.7508 19.4546 15.2726 19.1668C15.7947 18.8778 15.9638 18.2305 15.6508 17.7231C15.0114 16.6884 14.473 15.577 14.1283 14.3207L23.5742 16.8517C21.5858 18.8121 19.1753 19.7672 16.7734 20.7288C16.7556 20.7363 16.7381 20.7426 16.7203 20.7501C11.9728 22.6487 7.26407 24.5959 5.1015 32.6667C4.95055 33.2301 5.3074 33.8147 5.89896 33.9733C6.49053 34.1318 7.0919 33.8039 7.24286 33.2405C7.33712 32.8887 7.43833 32.5538 7.54284 32.228L20.3375 35.6563C20.2652 35.9907 20.1854 36.3314 20.0911 36.6832C19.9401 37.2465 20.297 37.8312 20.8886 37.9897C21.4801 38.1482 22.0815 37.8203 22.2325 37.2569C24.2091 29.8798 21.7855 25.8682 18.9381 22.1641C23.2548 20.3796 27.3598 18.1216 29.3361 10.7457C29.4871 10.1824 29.1302 9.5977 28.5386 9.43919C27.9471 9.28068 27.3457 9.60859 27.1947 10.172C27.1005 10.5237 26.9993 10.8586 26.8948 11.1845L14.1001 7.75612C14.1721 7.42298 14.2526 7.07979 14.3465 6.72929C14.4975 6.16592 14.1406 5.58125 13.549 5.42274L13.5492 5.42116ZM13.7733 9.85269L26.1287 13.1633C25.8012 13.8665 25.4418 14.4956 25.059 15.0624L13.742 12.0301C13.6953 11.3481 13.7044 10.6238 13.7733 9.85269ZM16.8752 23.0034C18.2906 24.8198 19.635 26.6922 20.2946 29.086L10.8648 26.5593C12.6346 24.815 14.7398 23.8696 16.8752 23.0034ZM9.37854 28.3468L20.6877 31.377C20.7371 32.0597 20.7324 32.7838 20.6645 33.5566L8.30903 30.2459C8.63659 29.5427 8.99574 28.9136 9.37854 28.3468Z" fill="#038EDC"/>
</svg>
