<svg width="40" height="40" viewBox="0 0 40 40" fill="none" xmlns="http://www.w3.org/2000/svg">
<path d="M34.1437 8.62957L30.379 4.87674C29.8377 4.31921 29.0774 4 28.2923 4H13.2487C11.0778 4 9.3125 5.76534 9.3125 7.93616V21.3622C9.3125 21.8982 9.74709 22.3328 10.2831 22.3328C10.819 22.3328 11.2536 21.8982 11.2536 21.3622V7.93616C11.2536 6.83619 12.1487 5.94112 13.2487 5.94112H25.7257V10.3367C25.7257 11.9607 27.0479 13.2829 28.6709 13.2829H33.0567V29.6659C33.0567 30.767 32.1627 31.661 31.0617 31.661H19.4387C18.9027 31.661 18.4681 32.0955 18.4681 32.6315C18.4681 33.1675 18.9027 33.6021 19.4387 33.6021H31.0638C33.2346 33.6021 35 31.8357 35 29.6659V10.7184C35 9.93551 34.6883 9.17416 34.1437 8.62957ZM28.6719 11.3417C28.1176 11.3417 27.6679 10.891 27.6679 10.3367V5.94112H28.2923C28.5555 5.94112 28.8089 6.0468 28.9976 6.23984L32.7709 10.0013C32.9532 10.1835 33.0578 10.4456 33.0578 10.7184V11.3417H28.6719Z" fill="#038EDC"/>
<path d="M15.889 18.967H28.4254C28.9614 18.967 29.396 18.5324 29.396 17.9964C29.396 17.4605 28.9614 17.0259 28.4254 17.0259H15.889C15.3531 17.0259 14.9185 17.4605 14.9185 17.9964C14.9185 18.5324 15.3531 18.967 15.889 18.967Z" fill="#038EDC"/>
<path d="M15.889 23.4401H28.4254C28.9614 23.4401 29.396 23.0055 29.396 22.4696C29.396 21.9336 28.9614 21.499 28.4254 21.499H15.889C15.3531 21.499 14.9185 21.9336 14.9185 22.4696C14.9185 23.0055 15.3531 23.4401 15.889 23.4401Z" fill="#038EDC"/>
<path d="M19.2127 27.9191H22.1568C22.6927 27.9191 23.1273 27.4846 23.1273 26.9486C23.1273 26.4126 22.6927 25.978 22.1568 25.978H19.2127C18.6768 25.978 18.2422 26.4126 18.2422 26.9486C18.2422 27.4846 18.6768 27.9191 19.2127 27.9191Z" fill="#038EDC"/>
<path d="M11.0024 24.1304C7.69276 24.1304 5 26.8231 5 30.1327C5 33.4424 7.69169 36.1362 11.0024 36.1362C14.3131 36.1362 17.0047 33.4424 17.0047 30.1327C17.0047 26.8231 14.312 24.1304 11.0024 24.1304ZM11.0024 34.1951C8.76254 34.1951 6.94004 32.3737 6.94004 30.1327C6.94004 27.894 8.76254 26.0715 11.0024 26.0715C13.2422 26.0715 15.0647 27.8929 15.0647 30.1327C15.0636 32.3726 13.2411 34.1951 11.0024 34.1951Z" fill="#038EDC"/>
<path d="M12.8398 28.2954C12.4602 27.9158 11.8466 27.9158 11.468 28.2954L11.0022 28.7613L10.5363 28.2954C10.1567 27.9158 9.5431 27.9158 9.16458 28.2954C8.78606 28.675 8.78498 29.2897 9.16458 29.6682L9.62937 30.133L9.16458 30.5978C8.78498 30.9774 8.78498 31.5921 9.16458 31.9706C9.35438 32.1604 9.60241 32.2553 9.85044 32.2553C10.0985 32.2553 10.3465 32.1604 10.5363 31.9706L11.0022 31.5048L11.468 31.9706C11.6578 32.1604 11.9059 32.2553 12.1539 32.2553C12.4019 32.2553 12.65 32.1604 12.8398 31.9706C13.2194 31.591 13.2194 30.9763 12.8398 30.5978L12.375 30.133L12.8398 29.6682C13.2183 29.2897 13.2183 28.674 12.8398 28.2954Z" fill="#038EDC"/>
</svg>
