<svg width="40" height="40" viewBox="0 0 40 40" fill="none" xmlns="http://www.w3.org/2000/svg">
<path d="M27 15.532C26.4 14.932 25.5 14.782 24.9 15.382L17.85 21.382L14.55 18.082C13.95 17.482 13.05 17.482 12.45 18.082C11.85 18.682 11.85 19.582 12.45 20.182L16.65 24.382C16.95 24.682 17.4 24.832 17.7 24.832C18 24.832 18.45 24.682 18.6 24.532L26.7 17.632C27.45 17.032 27.45 16.132 27 15.532Z" fill="#038EDC"/>
<path d="M20 5C11.75 5 5 11.75 5 20C5 28.25 11.75 35 20 35C28.25 35 35 28.25 35 20C35 11.75 28.25 5 20 5ZM20 32C13.4 32 8 26.6 8 20C8 13.4 13.4 8 20 8C26.6 8 32 13.4 32 20C32 26.6 26.6 32 20 32Z" fill="#038EDC"/>
</svg>
