<svg width="40" height="40" viewBox="0 0 40 40" fill="none" xmlns="http://www.w3.org/2000/svg">
<path fill-rule="evenodd" clip-rule="evenodd" d="M36.1791 12.1547C36.83 12.8055 36.83 13.8608 36.1791 14.5117L22.8458 27.845C22.195 28.4958 21.1397 28.4958 20.4888 27.845L13.8221 21.1783C13.1713 20.5275 13.1713 19.4722 13.8221 18.8213C14.473 18.1705 15.5283 18.1705 16.1792 18.8213L21.6673 24.3095L33.8222 12.1547C34.473 11.5038 35.5283 11.5038 36.1791 12.1547Z" fill="#038EDC"/>
<path fill-rule="evenodd" clip-rule="evenodd" d="M26.1791 12.1547C26.83 12.8055 26.83 13.8608 26.1791 14.5117L12.8458 27.845C12.195 28.4958 11.1397 28.4958 10.4888 27.845L3.82213 21.1783C3.17127 20.5275 3.17127 19.4722 3.82213 18.8213C4.47302 18.1705 5.52828 18.1705 6.17917 18.8213L11.6673 24.3095L23.8222 12.1547C24.473 11.5038 25.5283 11.5038 26.1791 12.1547Z" fill="#038EDC"/>
</svg>
