<svg width="14" height="14" viewBox="0 0 14 14" fill="none" xmlns="http://www.w3.org/2000/svg">
<path d="M13.3007 0.710703C12.9107 0.320703 12.2807 0.320703 11.8907 0.710703L7.0007 5.5907L2.1107 0.700703C1.7207 0.310703 1.0907 0.310703 0.700703 0.700703C0.310703 1.0907 0.310703 1.7207 0.700703 2.1107L5.5907 7.0007L0.700703 11.8907C0.310703 12.2807 0.310703 12.9107 0.700703 13.3007C1.0907 13.6907 1.7207 13.6907 2.1107 13.3007L7.0007 8.4107L11.8907 13.3007C12.2807 13.6907 12.9107 13.6907 13.3007 13.3007C13.6907 12.9107 13.6907 12.2807 13.3007 11.8907L8.4107 7.0007L13.3007 2.1107C13.6807 1.7307 13.6807 1.0907 13.3007 0.710703Z" fill="#0A1F41"/>
</svg>
