<svg width="17" height="10" viewBox="0 0 17 10" fill="none" xmlns="http://www.w3.org/2000/svg">
<path d="M10.2876 5.22013C10.2876 6.28892 9.42105 7.15543 8.35226 7.15543C7.28346 7.15543 6.41695 6.28892 6.41695 5.22013C6.41695 4.15133 7.28346 3.28482 8.35226 3.28482C9.42105 3.28482 10.2876 4.15133 10.2876 5.22013ZM16.1142 5.50955C14.3817 7.98987 11.5514 9.60677 8.35226 9.60677C5.15316 9.60677 2.32241 7.98987 0.590313 5.50955C0.469896 5.33694 0.469896 5.10349 0.590313 4.93072C2.32278 2.4504 5.15316 0.833496 8.35226 0.833496C11.5514 0.833496 14.3821 2.4504 16.1142 4.93072C16.2348 5.10351 16.2348 5.33678 16.1142 5.50955ZM11.1907 5.22013C11.1907 3.65253 9.91994 2.38159 8.35216 2.38159C6.78457 2.38159 5.51363 3.65235 5.51363 5.22013C5.51363 6.78772 6.78438 8.05866 8.35216 8.05866C9.91976 8.05866 11.1907 6.78772 11.1907 5.22013Z" fill="#038EDC"/>
</svg>
