<svg width="17" height="18" viewBox="0 0 17 18" fill="none" xmlns="http://www.w3.org/2000/svg">
<path d="M12.9632 4.54508C12.687 4.26883 12.2407 4.26883 11.9645 4.54508L8.50074 8.00175L5.03699 4.538C4.76074 4.26175 4.31449 4.26175 4.03824 4.538C3.76199 4.81425 3.76199 5.2605 4.03824 5.53675L7.50199 9.0005L4.03824 12.4642C3.76199 12.7405 3.76199 13.1867 4.03824 13.463C4.31449 13.7392 4.76074 13.7392 5.03699 13.463L8.50074 9.99925L11.9645 13.463C12.2407 13.7392 12.687 13.7392 12.9632 13.463C13.2395 13.1867 13.2395 12.7405 12.9632 12.4642L9.49949 9.0005L12.9632 5.53675C13.2324 5.26758 13.2324 4.81425 12.9632 4.54508Z" fill="white"/>
</svg>
