<svg width="24" height="24" viewBox="0 0 24 24" fill="none" xmlns="http://www.w3.org/2000/svg">
<g clip-path="url(#clip0_1_9942)">
<path fill-rule="evenodd" clip-rule="evenodd" d="M13.1994 4C9.29362 4 5.99579 6.6476 5.00433 10.2423H3.50319C3.4101 10.2429 3.31895 10.2691 3.23979 10.3181C3.16063 10.3671 3.09651 10.4369 3.05449 10.52C3.01247 10.6031 2.99418 10.6962 3.00162 10.789C3.00907 10.8818 3.04196 10.9707 3.09669 11.046L5.24875 13.9898C5.29572 14.0543 5.35727 14.1068 5.42838 14.143C5.49948 14.1792 5.57813 14.198 5.65791 14.198C5.7377 14.198 5.81635 14.1792 5.88745 14.143C5.95856 14.1068 6.02011 14.0543 6.06708 13.9898L8.21515 11.046C8.26995 10.9706 8.30285 10.8815 8.31025 10.7886C8.31764 10.6957 8.29923 10.6026 8.25705 10.5194C8.21487 10.4363 8.15056 10.3665 8.0712 10.3176C7.99185 10.2687 7.90053 10.2426 7.80732 10.2423H6.42176C7.36346 7.40146 10.0367 5.36032 13.1994 5.36032C17.1517 5.36032 20.3438 8.54706 20.3438 12.4993C20.3438 16.4516 17.1517 19.6397 13.1994 19.6397C10.8441 19.6397 8.64265 18.4788 7.31049 16.5364C7.20834 16.3881 7.05154 16.2864 6.87448 16.2535C6.69742 16.2206 6.51455 16.2593 6.36597 16.3611C6.29198 16.4117 6.22872 16.4764 6.17982 16.5516C6.13093 16.6267 6.09737 16.7107 6.08108 16.7989C6.06478 16.887 6.06607 16.9775 6.08487 17.0652C6.10367 17.1528 6.13961 17.2359 6.19062 17.3096C7.77561 19.6206 10.3972 21 13.1994 21C17.8869 21 21.7054 17.1868 21.7054 12.4993C21.7054 7.81189 17.8869 4 13.1994 4ZM12.7279 8.19254C12.6385 8.19289 12.5502 8.21083 12.4678 8.24533C12.3854 8.27984 12.3106 8.33023 12.2477 8.39363C12.1848 8.45704 12.135 8.53222 12.1011 8.61487C12.0672 8.69753 12.05 8.78604 12.0503 8.87536V13.0825C12.0503 13.1932 12.0772 13.3023 12.1288 13.4002C12.1805 13.4981 12.2552 13.582 12.3466 13.6444L14.6355 15.2067C14.7842 15.3083 14.9672 15.3468 15.1443 15.3137C15.3214 15.2806 15.4781 15.1785 15.58 15.03C15.6812 14.8814 15.7195 14.6987 15.6863 14.5219C15.6532 14.3452 15.5515 14.1887 15.4033 14.0868L13.4107 12.7212V8.87536C13.411 8.78559 13.3936 8.69665 13.3594 8.61364C13.3252 8.53064 13.2749 8.45523 13.2115 8.39175C13.148 8.32828 13.0726 8.278 12.9896 8.24381C12.9066 8.20962 12.8176 8.19219 12.7279 8.19254Z" fill="#038EDC"/>
</g>
<defs>
<clipPath id="clip0_1_9942">
<rect width="24" height="24" fill="white"/>
</clipPath>
</defs>
</svg>
