<svg width="83" height="112" viewBox="0 0 83 112" fill="none" xmlns="http://www.w3.org/2000/svg">
<path d="M69.167 82.6257L63.9568 10.2618L48.1651 0.756836H4.72705L10.6232 82.6257H69.167Z" fill="white"/>
<path d="M69.1668 83.3833H10.623C10.2262 83.3833 9.89651 83.077 9.86838 82.6802L3.97228 0.811315C3.95666 0.601967 4.03008 0.394197 4.17382 0.241092C4.31755 0.0864253 4.51751 0.000488281 4.72842 0.000488281H48.1665C48.3039 0.000488281 48.4399 0.0379948 48.557 0.10986L64.3471 9.61328C64.5581 9.73983 64.694 9.96168 64.7111 10.207L69.9214 82.5709C69.937 82.7802 69.8636 82.988 69.7199 83.1411C69.5777 83.2958 69.3762 83.3833 69.1668 83.3833ZM11.3276 81.8694H68.3529L63.2285 10.7085L47.9555 1.51437H5.54082L11.3276 81.8694Z" fill="#666666"/>
<path d="M63.9562 10.2613L48.1646 0.756348L53.9622 13.3484L63.9562 10.2613Z" fill="#EBEBEB"/>
<path d="M53.9624 14.1047C53.6734 14.1047 53.4015 13.9376 53.275 13.6642L47.4773 1.07366C47.3383 0.772138 47.4117 0.414356 47.6601 0.19251C47.907 -0.0293356 48.271 -0.0621451 48.5553 0.108145L64.3454 9.61314C64.6016 9.76625 64.7422 10.0568 64.7063 10.3537C64.6704 10.6505 64.4642 10.8974 64.1783 10.9848L54.1858 14.0719C54.1124 14.0938 54.0374 14.1047 53.9624 14.1047ZM49.8817 2.67343L54.3733 12.4284L62.116 10.0365L49.8817 2.67343Z" fill="#666666"/>
<path d="M29.2333 37.6423C29.3645 39.4687 27.9913 40.9497 26.1634 40.9497C24.3355 40.9497 22.7498 39.4687 22.6185 37.6423C22.4873 35.816 23.8606 34.335 25.6869 34.335C27.5132 34.335 29.102 35.816 29.2333 37.6423Z" fill="#666666"/>
<path d="M50.6938 37.6423C50.8251 39.4687 49.4518 40.9497 47.6239 40.9497C45.7976 40.9497 44.2103 39.4687 44.0775 37.6423C43.9463 35.816 45.3195 34.335 47.1474 34.335C48.9753 34.3365 50.5626 35.816 50.6938 37.6423Z" fill="#666666"/>
<path d="M56.7474 59.0925C56.3537 59.0925 56.0225 58.7878 55.9928 58.3895C55.61 53.0714 47.2705 48.7454 37.4015 48.7454C30.8633 48.7454 24.9938 50.6889 22.0817 53.8182C20.7865 55.2102 20.1882 56.71 20.3006 58.2801C20.3303 58.6972 20.0163 59.0597 19.5992 59.0894C19.1805 59.1159 18.8196 58.805 18.7899 58.3879C18.6477 56.41 19.4023 54.4728 20.9724 52.7855C24.1611 49.3578 30.4556 47.23 37.4015 47.23C48.2267 47.23 57.0567 52.084 57.5035 58.2785C57.5332 58.6957 57.2192 59.0581 56.8021 59.0878C56.7833 59.0925 56.7646 59.0925 56.7474 59.0925Z" fill="#666666"/>
<path d="M17.044 30.943C16.8597 30.943 16.6753 30.8758 16.5285 30.7414C16.2222 30.4571 16.2035 29.9775 16.4878 29.6713L19.8061 26.0968C20.0905 25.789 20.5701 25.7734 20.8763 26.0561C21.1825 26.3405 21.1997 26.8201 20.9169 27.1263L17.6002 30.7008C17.4502 30.8617 17.2471 30.943 17.044 30.943Z" fill="#666666"/>
<path d="M55.1916 30.9434C55.0073 30.9434 54.8214 30.8763 54.6745 30.7403L50.8422 27.1658C50.536 26.8815 50.5204 26.4018 50.8047 26.0956C51.0891 25.7894 51.5687 25.7738 51.8749 26.0581L55.7072 29.6327C56.0134 29.917 56.029 30.3966 55.7447 30.7028C55.5963 30.8622 55.3947 30.9434 55.1916 30.9434Z" fill="#666666"/>
<path d="M0 98.8027H3.53078L8.62542 105.574L8.13799 98.8027H11.7016L12.5827 111.04H9.01757L3.95103 104.321L4.43534 111.04H0.879577L0 98.8027Z" fill="#666666"/>
<path d="M14.1816 104.928C14.0379 102.93 14.4816 101.376 15.5158 100.262C16.5485 99.1495 18.0593 98.5918 20.0449 98.5918C22.0822 98.5918 23.6898 99.1386 24.8709 100.232C26.0519 101.326 26.7128 102.857 26.855 104.827C26.9581 106.256 26.8019 107.43 26.3863 108.345C25.9707 109.261 25.327 109.973 24.4537 110.482C23.5804 110.992 22.4649 111.246 21.1073 111.246C19.7278 111.246 18.5686 111.026 17.6328 110.587C16.6969 110.148 15.9142 109.451 15.2831 108.5C14.6519 107.55 14.2848 106.36 14.1816 104.928ZM17.964 104.946C18.053 106.181 18.3467 107.069 18.8435 107.608C19.3419 108.148 19.9856 108.417 20.7761 108.417C21.5885 108.417 22.1978 108.153 22.6055 107.623C23.0133 107.095 23.1664 106.145 23.068 104.777C22.9852 103.625 22.6915 102.783 22.1884 102.252C21.6853 101.721 21.0354 101.455 20.2402 101.455C19.4778 101.455 18.8857 101.726 18.4623 102.265C18.0405 102.807 17.8749 103.699 17.964 104.946Z" fill="#666666"/>
<path d="M34.2056 98.8027H39.8236C40.9313 98.8027 41.8358 98.9527 42.5404 99.2527C43.2434 99.5526 43.8387 99.9838 44.3246 100.546C44.8104 101.109 45.1807 101.762 45.4338 102.508C45.6884 103.254 45.8447 104.044 45.9056 104.878C45.9993 106.186 45.9243 107.2 45.6775 107.922C45.4322 108.642 45.062 109.247 44.5683 109.733C44.0746 110.22 43.5309 110.543 42.9357 110.704C42.1233 110.928 41.3796 111.039 40.7063 111.039H35.0883L34.2056 98.8027ZM38.1863 101.574L38.6675 108.261H39.5939C40.3844 108.261 40.9391 108.173 41.2609 107.998C41.5827 107.823 41.8218 107.517 41.9796 107.08C42.1374 106.642 42.1811 105.935 42.1108 104.955C42.0171 103.658 41.7421 102.771 41.2843 102.293C40.8266 101.815 40.1079 101.576 39.1284 101.576H38.1863V101.574Z" fill="#666666"/>
<path d="M54.9782 109.019H50.685L50.2335 111.039H46.373L50.0913 98.8013H54.2158L59.6947 111.039H55.7343L54.9782 109.019ZM54.0033 106.374L52.3348 101.974L51.3146 106.374H54.0033Z" fill="#666666"/>
<path d="M57.9805 98.8027H69.4743L69.6914 101.824H65.8357L66.4997 111.04H62.7189L62.0549 101.824H58.1992L57.9805 98.8027Z" fill="#666666"/>
<path d="M78.2829 109.019H73.9897L73.5382 111.039H69.6777L73.396 98.8013H77.5205L82.9994 111.039H79.039L78.2829 109.019ZM77.308 106.374L75.641 101.974L74.6208 106.374H77.308Z" fill="#666666"/>
</svg>
