<svg width="52" height="65" viewBox="0 0 52 65" fill="none" xmlns="http://www.w3.org/2000/svg">
<path d="M41.4486 28.6602C41.4486 24.1798 39.5774 19.8943 36.302 16.8983C32.9872 13.8618 28.7019 12.4737 24.2284 12.9725C17.062 13.7905 11.3388 19.7056 10.6323 27.0427C10.1895 31.5882 11.6028 35.9418 14.6083 39.3067C16.9223 41.8846 18.1869 45.3271 18.1869 49.0078V49.5469C18.3416 49.5221 18.4963 49.5004 18.6601 49.5004H33.3268C33.4906 49.5004 33.6453 49.5252 33.7999 49.5469V48.9985C33.7999 45.367 35.104 41.8842 37.4726 39.2006C40.0263 36.2973 41.4395 32.5543 41.4395 28.65L41.4486 28.6602Z" fill="#1BB750"/>
<path d="M18.6642 59.3173H33.3309C33.9678 59.3173 34.4864 58.7843 34.4864 58.1367C34.4864 57.4241 33.9648 56.8911 33.3309 56.8911H18.6642C18.0273 56.8911 17.5087 57.4241 17.5087 58.0717C17.5087 58.7843 18.0303 59.3173 18.6642 59.3173Z" fill="#1BB750"/>
<path d="M18.6642 54.4154H33.3309C33.9678 54.4154 34.4864 53.8825 34.4864 53.2349C34.4864 52.5222 33.9648 51.9893 33.3309 51.9893H18.6642C18.0273 51.9893 17.5087 52.5222 17.5087 53.1698C17.5087 53.8825 18.0303 54.4154 18.6642 54.4154Z" fill="#1BB750"/>
<path d="M21.8231 64.2285H30.1693C30.8304 64.2285 31.3581 63.68 31.3581 63.0139V61.7993H20.6284V63.0139C20.6284 63.6894 21.1652 64.2285 21.8172 64.2285H21.8231Z" fill="#1BB750"/>
<path d="M27.2104 6.2988V2.00731C27.2104 1.32563 26.6676 0.770996 26.0004 0.770996C25.3332 0.770996 24.7903 1.32563 24.7903 2.00731V6.2988C24.7903 6.98047 25.3332 7.53511 26.0004 7.53511C26.6676 7.53511 27.2104 6.98047 27.2104 6.2988Z" fill="#1BB750"/>
<path d="M13.1503 11.795C13.3989 11.795 13.6476 11.7145 13.8569 11.5564C14.3998 11.1505 14.518 10.3821 14.1207 9.82744L11.6521 6.35401C11.2548 5.79937 10.5026 5.67853 9.95977 6.08444C9.4169 6.49035 9.29862 7.2588 9.69592 7.81342L12.1646 11.2869C12.3981 11.6215 12.7712 11.795 13.1442 11.795L13.1503 11.795Z" fill="#1BB750"/>
<path d="M5.58035 20.5549L1.58319 19.2287C0.946307 19.0211 0.263948 19.3712 0.0607667 20.0219C-0.148493 20.6726 0.200276 21.3697 0.837155 21.5773L4.83432 22.9035C4.95866 22.9438 5.083 22.9655 5.20735 22.9655C5.71989 22.9655 6.19297 22.6308 6.35679 22.1103C6.56605 21.4596 6.21723 20.7624 5.58035 20.5549Z" fill="#1BB750"/>
<path d="M6.35673 35.1493C6.14747 34.4986 5.46512 34.1485 4.83431 34.3561L0.837147 35.6823C0.200267 35.8961 -0.148479 36.5932 0.0607578 37.2377C0.224529 37.7614 0.697637 38.0929 1.2102 38.0929C1.33455 38.0929 1.45889 38.0774 1.58323 38.0309L5.58039 36.7047C6.21727 36.4909 6.56596 35.7938 6.35673 35.1493Z" fill="#1BB750"/>
<path d="M51.1535 35.6823L47.1563 34.3561C46.5194 34.1485 45.8371 34.4987 45.6339 35.1493C45.4246 35.8 45.7734 36.4972 46.4103 36.7048L50.4074 38.031C50.5318 38.0712 50.6561 38.0929 50.7805 38.0929C51.293 38.0929 51.7661 37.7583 51.9299 37.2378C52.1392 36.5871 51.7904 35.8899 51.1535 35.6823Z" fill="#1BB750"/>
<path d="M45.6427 22.1064C45.8065 22.6301 46.2796 22.9616 46.7922 22.9616C46.9165 22.9616 47.0409 22.9461 47.1652 22.8996L51.1624 21.5734C51.7992 21.3596 52.148 20.6625 51.9388 20.018C51.7295 19.3766 51.0532 19.011 50.4163 19.2248L46.4192 20.551C45.7823 20.7648 45.4335 21.4619 45.6427 22.1064Z" fill="#1BB750"/>
<path d="M42.0312 6.09389C41.4883 5.68798 40.7331 5.81503 40.3389 6.36346L37.8702 9.8369C37.4729 10.3915 37.5973 11.1631 38.1341 11.5659C38.3524 11.7239 38.6011 11.8045 38.8498 11.8045C39.2228 11.8045 39.5959 11.6309 39.8294 11.2963L42.298 7.82288C42.6953 7.26824 42.571 6.49669 42.0342 6.09389H42.0312Z" fill="#1BB750"/>
</svg>
