<svg width="24" height="18" viewBox="0 0 24 18" fill="none" xmlns="http://www.w3.org/2000/svg">
<path d="M20 17.75H4C3.00576 17.7489 2.05255 17.3535 1.34952 16.6505C0.646487 15.9474 0.251059 14.9942 0.25 14V4C0.251059 3.00576 0.646487 2.05255 1.34952 1.34952C2.05255 0.646487 3.00576 0.251059 4 0.25H20C20.9942 0.251059 21.9474 0.646487 22.6505 1.34952C23.3535 2.05255 23.7489 3.00576 23.75 4V14C23.7489 14.9942 23.3535 15.9474 22.6505 16.6505C21.9474 17.3535 20.9942 17.7489 20 17.75ZM4 1.75C3.40343 1.75053 2.83144 1.98775 2.40959 2.40959C1.98775 2.83144 1.75053 3.40343 1.75 4V14C1.75053 14.5966 1.98775 15.1686 2.40959 15.5904C2.83144 16.0122 3.40343 16.2495 4 16.25H20C20.5966 16.2495 21.1686 16.0122 21.5904 15.5904C22.0122 15.1686 22.2495 14.5966 22.25 14V4C22.2495 3.40343 22.0122 2.83144 21.5904 2.40959C21.1686 1.98775 20.5966 1.75053 20 1.75H4Z" fill="white"/>
<path d="M20 17.75H4C3.80109 17.75 3.61032 17.671 3.46967 17.5303C3.32902 17.3897 3.25 17.1989 3.25 17V11C3.25053 10.2708 3.54043 9.57165 4.05604 9.05604C4.57165 8.54043 5.27082 8.25053 6 8.25H18C18.7292 8.25053 19.4283 8.54043 19.944 9.05604C20.4596 9.57165 20.7495 10.2708 20.75 11V17C20.75 17.1989 20.671 17.3897 20.5303 17.5303C20.3897 17.671 20.1989 17.75 20 17.75ZM4.75 16.25H19.25V11C19.2495 10.6686 19.1176 10.351 18.8833 10.1167C18.649 9.8824 18.3314 9.75053 18 9.75H6C5.66864 9.75053 5.35101 9.8824 5.1167 10.1167C4.88239 10.351 4.75053 10.6686 4.75 11V16.25Z" fill="white"/>
<path d="M5 5.5C5.55228 5.5 6 5.05228 6 4.5C6 3.94772 5.55228 3.5 5 3.5C4.44772 3.5 4 3.94772 4 4.5C4 5.05228 4.44772 5.5 5 5.5Z" fill="white"/>
<path d="M8 5.5C8.55228 5.5 9 5.05228 9 4.5C9 3.94772 8.55228 3.5 8 3.5C7.44772 3.5 7 3.94772 7 4.5C7 5.05228 7.44772 5.5 8 5.5Z" fill="white"/>
<path d="M20 5.25H17C16.8011 5.25 16.6103 5.17098 16.4697 5.03033C16.329 4.88968 16.25 4.69891 16.25 4.5C16.25 4.30109 16.329 4.11032 16.4697 3.96967C16.6103 3.82902 16.8011 3.75 17 3.75H20C20.1989 3.75 20.3897 3.82902 20.5303 3.96967C20.671 4.11032 20.75 4.30109 20.75 4.5C20.75 4.69891 20.671 4.88968 20.5303 5.03033C20.3897 5.17098 20.1989 5.25 20 5.25ZM17 13.75H7C6.80109 13.75 6.61032 13.671 6.46967 13.5303C6.32902 13.3897 6.25 13.1989 6.25 13C6.25 12.8011 6.32902 12.6103 6.46967 12.4697C6.61032 12.329 6.80109 12.25 7 12.25H17C17.1989 12.25 17.3897 12.329 17.5303 12.4697C17.671 12.6103 17.75 12.8011 17.75 13C17.75 13.1989 17.671 13.3897 17.5303 13.5303C17.3897 13.671 17.1989 13.75 17 13.75Z" fill="white"/>
</svg>
