<svg width="24" height="24" viewBox="0 0 24 24" fill="none" xmlns="http://www.w3.org/2000/svg">
<path d="M7.9 20C9.80858 20.9791 12.0041 21.2442 14.0909 20.7478C16.1777 20.2513 18.0186 19.0258 19.2818 17.2922C20.545 15.5585 21.1474 13.4307 20.9806 11.2922C20.8137 9.15361 19.8886 7.14497 18.3718 5.62819C16.855 4.11142 14.8464 3.18625 12.7078 3.01942C10.5693 2.85258 8.44147 3.45505 6.70782 4.71825C4.97417 5.98145 3.74869 7.82231 3.25222 9.90911C2.75575 11.9959 3.02094 14.1914 4 16.1L2 22L7.9 20Z" stroke="white" stroke-width="2" stroke-linecap="round" stroke-linejoin="round"/>
<path d="M9.08984 9C9.32495 8.33167 9.789 7.76811 10.3998 7.40913C11.0106 7.05016 11.7287 6.91894 12.427 7.03871C13.1253 7.15849 13.7587 7.52152 14.2149 8.06353C14.6712 8.60553 14.9209 9.29152 14.9198 10C14.9198 12 11.9198 13 11.9198 13" stroke="white" stroke-width="2" stroke-linecap="round" stroke-linejoin="round"/>
<path d="M12 17H12.01" stroke="white" stroke-width="2" stroke-linecap="round" stroke-linejoin="round"/>
</svg>
