<svg width="20" height="20" viewBox="0 0 20 20" fill="none" xmlns="http://www.w3.org/2000/svg">
    <path fill-rule="evenodd" clip-rule="evenodd" d="M3.745 11.548c4.266.74 8.531.715 12.797 0v-5.93a.311.311 0 0 0-.063-.187L13.67 1.685a.312.312 0 0 0-.25-.124H4.683a.936.936 0 0 0-.937.936v7.178c0 .464-.108.857-.108 1.17 0 .433.108.703.108.703z" fill="#D8DFE3"/>
    <path fill-rule="evenodd" clip-rule="evenodd" d="M1.873 10.739v6.74a.936.936 0 0 0 .936.936h14.357a.937.937 0 0 0 .937-.937v-4.994a.937.937 0 0 0-.937-.936H3.122c-.399 0-1.249-.809-1.249-.809z" fill="#3465A4"/>
    <path fill-rule="evenodd" clip-rule="evenodd" d="M2.81 11.548a.931.931 0 0 1-.936-.936c0-.198.098-.487.273-.662a.936.936 0 0 1 .662-.274h.937v1.872h-.937z" fill="#204A87"/>
    <path fill-rule="evenodd" clip-rule="evenodd" d="M13.42 1.56v3.122a.936.936 0 0 0 .936.936h2.185a.312.312 0 0 0-.062-.187l-2.81-3.746a.312.312 0 0 0-.25-.124z" fill="#AFBDC7"/>
    <path fill-rule="evenodd" clip-rule="evenodd" d="M6.554 5.93h4.058a.312.312 0 0 0 0-.624H6.554a.312.312 0 0 0 0 .624zm0 1.873h7.179a.312.312 0 0 0 0-.625H6.554a.312.312 0 0 0 0 .625zm0 1.872h7.179a.312.312 0 0 0 0-.624H6.554a.312.312 0 0 0 0 .624z" fill="#3465A4"/>
    <path d="M8.75 16.75a.34.34 0 0 1-.298-.506l1.704-3.069a.34.34 0 0 1 .596.332l-1.704 3.068a.34.34 0 0 1-.298.175z" fill="#D8DFE3"/>
    <path d="m10.156 16.575-1.704-3.068a.34.34 0 1 1 .596-.332l1.704 3.069a.34.34 0 1 1-.596.33zm3.707-2.893h-2.045a.34.34 0 1 1 0-.682h2.045a.34.34 0 1 1 0 .682z" fill="#D8DFE3"/>
    <path d="M12.84 16.75a.34.34 0 0 1-.34-.341v-3.068a.34.34 0 0 1 .681 0v3.068a.34.34 0 0 1-.34.34zm-5.454-3.068H5.341a.34.34 0 1 1 0-.682h2.045a.34.34 0 1 1 0 .682z" fill="#D8DFE3"/>
    <path d="M6.364 16.75a.34.34 0 0 1-.341-.341v-3.068a.34.34 0 1 1 .681 0v3.068a.34.34 0 0 1-.34.34z" fill="#D8DFE3"/>
</svg>
