<svg width="20" height="20" viewBox="0 0 20 20" fill="none" xmlns="http://www.w3.org/2000/svg">
<path d="M10.002 0.200001L10.0021 0.200001C11.3573 0.201483 12.6975 0.484035 13.938 1.02981C15.1784 1.57557 16.2922 2.3727 17.209 3.37081C18.1257 4.36892 18.8255 5.54633 19.264 6.82863C19.7026 8.11093 19.8704 9.47026 19.7569 10.8207C19.6434 12.1712 19.2511 13.4834 18.6046 14.6746C17.9582 15.8657 17.0717 16.9098 16.0012 17.7409C14.9308 18.572 13.6996 19.172 12.3854 19.5031C11.0712 19.8341 9.70268 19.889 8.36622 19.6643L8.36618 19.6643C8.15732 19.629 7.97097 19.5124 7.84799 19.3399C7.72501 19.1675 7.67546 18.9533 7.71018 18.7443L7.71021 18.7442C7.74547 18.5353 7.86212 18.349 8.03459 18.226C8.20705 18.103 8.42125 18.0534 8.63021 18.0882M10.002 0.200001L2.89779 14.1C1.99531 12.5368 1.6338 10.7196 1.86932 8.93003C2.10485 7.14048 2.92425 5.47864 4.20045 4.20222C5.47666 2.92579 7.13836 2.10611 8.92787 1.87029C10.7174 1.63447 12.5347 1.99567 14.098 2.8979C15.6613 3.80013 16.8833 5.19296 17.5744 6.8604C18.2655 8.52783 18.3871 10.3767 17.9203 12.1203C17.4536 13.8639 16.4247 15.4048 14.993 16.504C13.5613 17.6032 11.807 18.1994 10.002 18.2H10.002C9.54241 18.2004 9.08361 18.163 8.63021 18.0882M10.002 0.200001C8.30844 0.199218 6.64354 0.637349 5.16971 1.47167C3.69588 2.30599 2.46342 3.50801 1.59252 4.96053C0.721619 6.41304 0.242005 8.06646 0.200451 9.75954C0.159059 11.446 0.553707 13.1145 1.34604 14.6035L0.203964 18.7911C0.203932 18.7913 0.2039 18.7914 0.203868 18.7915C0.163497 18.9317 0.162266 19.0804 0.200313 19.2213C0.23839 19.3623 0.314353 19.4902 0.419964 19.5912L0.420792 19.5919M10.002 0.200001L0.420792 19.5919M8.63021 18.0882L8.62201 18.1375L8.63015 18.0882C8.63017 18.0882 8.63019 18.0882 8.63021 18.0882ZM0.420792 19.5919C0.499401 19.6637 0.591545 19.7191 0.691825 19.7548C0.790399 19.7899 0.894887 19.8053 0.999367 19.8002C1.07002 19.8111 1.14196 19.8108 1.21254 19.7994L1.21259 19.7997M0.420792 19.5919L1.21259 19.7997M1.21259 19.7997L1.21795 19.7982M1.21259 19.7997L1.21795 19.7982M1.21795 19.7982L5.65025 18.5607M1.21795 19.7982L5.65025 18.5607M5.65025 18.5607C5.85499 18.5045 6.029 18.3692 6.13402 18.1847C6.23903 18.0002 6.26645 17.7815 6.21022 17.5768C6.154 17.372 6.01875 17.198 5.83422 17.093C5.64969 16.988 5.431 16.9606 5.22627 17.0168L2.13771 17.8492L2.97779 14.708C3.0051 14.6063 3.01209 14.5003 2.99836 14.396C2.98464 14.2917 2.95047 14.1911 2.89781 14.1L5.65025 18.5607Z" fill="white" stroke="white" stroke-width="0.1"/>
<path d="M8.42316 5.17807L8.42323 5.17817L9.29231 6.37691C9.45511 6.57444 9.56645 6.80922 9.6164 7.06028C9.66644 7.31187 9.65327 7.57194 9.57805 7.81718M8.42316 5.17807L9.53025 7.80252M8.42316 5.17807C8.28783 4.99241 8.11399 4.83818 7.91354 4.72593C7.71309 4.61367 7.49075 4.54605 7.26175 4.52768V4.52768L7.26142 4.52765C7.03134 4.5107 6.8003 4.5434 6.58396 4.62353C6.36761 4.70366 6.17101 4.82934 6.00748 4.99208L6.00739 4.99216L5.10739 5.89216L5.10739 5.89216L5.10703 5.89254C4.90115 6.10278 4.74045 6.35291 4.63482 6.62755C4.52931 6.90187 4.48097 7.19486 4.49275 7.48853L8.42316 5.17807ZM9.57805 7.81718L9.53025 7.80252M9.57805 7.81718C9.57805 7.81717 9.57806 7.81716 9.57806 7.81715L9.53025 7.80252M9.57805 7.81718C9.54949 7.91047 9.51758 8.01431 9.48425 8.12274C9.38654 8.44065 9.27673 8.79793 9.20402 9.04391M9.53025 7.80252C9.50173 7.89567 9.46985 7.99942 9.43654 8.10779C9.33844 8.42696 9.22804 8.78616 9.15525 9.03252M9.20402 9.04391C9.20416 9.04307 9.2043 9.04223 9.20446 9.04139L9.15525 9.03252M9.20402 9.04391C9.20124 9.06069 9.20082 9.07776 9.20276 9.09463M9.20402 9.04391C9.20375 9.04484 9.20347 9.04576 9.2032 9.04669L9.15525 9.03252M9.15525 9.03252L9.20276 9.09463M9.20276 9.09463C9.20007 9.09119 9.19738 9.08774 9.1947 9.0843L9.15525 9.11502L9.20446 9.10615C9.20377 9.10232 9.2032 9.09848 9.20276 9.09463ZM9.20276 9.09463C9.70135 9.73281 10.2885 10.2966 10.9463 10.769M9.20276 9.09463L10.9177 10.81M10.9463 10.769C10.9462 10.7689 10.946 10.7688 10.9458 10.7686L10.9177 10.81M10.9463 10.769C10.9465 10.7691 10.9467 10.7693 10.9469 10.7694L10.9177 10.81M10.9463 10.769C10.9943 10.8014 11.0496 10.8213 11.1071 10.8269M10.9177 10.81C10.9757 10.8493 11.0429 10.8726 11.1127 10.8775M11.1071 10.8269L11.0977 10.8298L11.1127 10.8775M11.1071 10.8269L12.2152 10.4773L12.2156 10.4772C12.4536 10.4043 12.7053 10.3874 12.9509 10.4276C13.1966 10.4679 13.4296 10.5643 13.6319 10.7094L13.632 10.7094L14.809 11.5566M11.1071 10.8269C11.1102 10.8272 11.1132 10.8274 11.1163 10.8276L11.1127 10.8775M11.1127 10.8775L14.809 11.5566M14.809 11.5566C14.8088 11.5565 14.8086 11.5564 14.8085 11.5562L14.7802 11.5975L14.8095 11.5569L14.809 11.5566ZM14.809 11.5566C15.0003 11.6874 15.1599 11.8595 15.2759 12.0602C15.392 12.2611 15.4616 12.4854 15.4794 12.7168C15.4973 12.9481 15.463 13.1805 15.379 13.3968C15.2952 13.6128 15.164 13.8073 14.995 13.9659M14.809 11.5566L14.0602 14.83L14.096 14.865L14.995 13.9659M14.995 13.9659L14.9956 13.9654L14.9602 13.93L14.9945 13.9665C14.9947 13.9663 14.9949 13.9661 14.995 13.9659ZM10.2005 12.1573C9.20479 11.5085 8.35653 10.6576 7.71077 9.65968L7.70521 9.65109L7.70618 9.65071C7.57102 9.30474 7.55731 8.92315 7.66728 8.56839C7.75569 8.25169 7.92285 7.72042 8.04238 7.35354L7.20515 6.18285L6.28719 7.03627C6.17265 7.14751 6.10565 7.29878 6.10025 7.45834C6.10058 7.94822 6.39686 9.1283 8.64256 11.3066L8.64276 11.3068C9.99445 12.6323 10.9982 13.3177 11.7057 13.6283C12.0593 13.7836 12.3368 13.8442 12.5453 13.8459C12.7539 13.8476 12.8899 13.7905 12.9677 13.7144L10.2005 12.1573ZM10.2005 12.1573L10.1962 12.1739C10.6087 12.4 11.0934 12.4554 11.5463 12.3282L11.5463 12.3282L11.5471 12.3279L12.6774 11.9903L13.8194 12.877M10.2005 12.1573L13.8194 12.877M13.8194 12.877L12.9678 13.7143L13.8194 12.877ZM13.3923 15.3365C13.6567 15.2294 13.8962 15.069 14.0957 14.8652L7.54275 12.4375C9.86025 14.6875 11.4652 15.4375 12.5602 15.4375L12.5589 15.4875C12.5592 15.4875 12.5594 15.4875 12.5596 15.4875C12.8446 15.4949 13.1281 15.4435 13.3923 15.3365Z" fill="white" stroke="white" stroke-width="0.1"/>
</svg>
