<svg width="20" height="20" viewBox="0 0 20 20" fill="none" xmlns="http://www.w3.org/2000/svg">
    <path fill-rule="evenodd" clip-rule="evenodd" d="M3.745 11.548c4.266.74 8.531.715 12.797 0v-5.93a.311.311 0 0 0-.063-.187L13.67 1.685a.312.312 0 0 0-.25-.124H4.683a.936.936 0 0 0-.937.936v7.178c0 .464-.108.857-.108 1.17 0 .433.108.703.108.703z" fill="#D8DFE3"/>
    <path fill-rule="evenodd" clip-rule="evenodd" d="M1.873 10.739v6.74a.936.936 0 0 0 .936.936h14.357a.937.937 0 0 0 .937-.937v-4.994a.937.937 0 0 0-.937-.936H3.122c-.399 0-1.249-.809-1.249-.809z" fill="#207245"/>
    <path fill-rule="evenodd" clip-rule="evenodd" d="M2.81 11.548a.931.931 0 0 1-.936-.936c0-.198.098-.487.273-.662a.936.936 0 0 1 .662-.274h.937v1.872h-.937z" fill="#005225"/>
    <path fill-rule="evenodd" clip-rule="evenodd" d="M13.42 1.56v3.122a.936.936 0 0 0 .936.936h2.185a.312.312 0 0 0-.062-.187l-2.81-3.746a.312.312 0 0 0-.25-.124z" fill="#AFBDC7"/>
    <path fill-rule="evenodd" clip-rule="evenodd" d="M6.554 5.93h4.058a.312.312 0 0 0 0-.624H6.554a.312.312 0 0 0 0 .624zm0 1.873h7.179a.312.312 0 0 0 0-.625H6.554a.312.312 0 0 0 0 .625zm0 1.872h7.179a.312.312 0 0 0 0-.624H6.554a.312.312 0 0 0 0 .624z" fill="#207245"/>
    <path fill-rule="evenodd" clip-rule="evenodd" d="M12.055 16.051a.936.936 0 0 0 .935.936h.704a.936.936 0 0 0 .936-.936v-.124a.936.936 0 0 0-.589-.87l-1.135-.453a.361.361 0 0 1-.227-.336v-.09a.312.312 0 0 1 .312-.312h.702a.312.312 0 0 1 .312.312v.154a.314.314 0 0 0 .312.314.31.31 0 0 0 .313-.314v-.154a.937.937 0 0 0-.937-.937h-.702a.936.936 0 0 0-.936.937v.09c0 .403.245.765.62.915l1.134.454a.312.312 0 0 1 .196.29v.124a.311.311 0 0 1-.311.312h-.704a.311.311 0 0 1-.311-.312v-.155a.308.308 0 0 0-.307-.314c-.131 0-.317.102-.317.312v.157z" fill="#D8DFE3"/>
    <path d="M6.418 16.934a.375.375 0 0 1-.119-.516l1.875-3a.375.375 0 1 1 .636.397l-1.875 3a.375.375 0 0 1-.516.12z" fill="#D8DFE3"/>
    <path d="m8.174 16.815-1.875-3a.375.375 0 1 1 .636-.397l1.875 3a.375.375 0 0 1-.636.397zM11.117 16.991H9.992a.375.375 0 0 1-.375-.375v-3a.375.375 0 1 1 .75 0v2.625h.75a.375.375 0 0 1 0 .75z" fill="#D8DFE3"/>
</svg>
